<svg width="788" height="197" viewBox="0 0 788 197" fill="none" xmlns="http://www.w3.org/2000/svg">
<path fill-rule="evenodd" clip-rule="evenodd" d="M787.933 197C756.992 175.058 723.548 144.57 710.325 111.438C700.334 86.4085 690.633 55.7896 689.173 17.1807C665.815 19.2089 640.783 23.8234 615.75 32.8333C586.943 43.2018 558.136 59.3911 529.329 75.5803C489.719 97.8406 450.11 120.101 410.5 127.229C347.785 138.516 285.069 111.867 222.354 85.2185C216.653 82.7959 210.951 80.3733 205.25 77.9792C136.833 49.25 68.4167 24.625 34.2083 12.3125L0 0V197H34.2083H205.25H410.5H615.75H786.792H787.933Z" fill="#00549E"/>
</svg>
