<svg width="16" height="16" viewBox="0 0 16 16" fill="none" xmlns="http://www.w3.org/2000/svg">
<mask id="mask0" mask-type="alpha" maskUnits="userSpaceOnUse" x="1" y="1" width="14" height="14">
<path fill-rule="evenodd" clip-rule="evenodd" d="M1.33398 7.99967C1.33398 4.31967 4.32065 1.33301 8.00065 1.33301C11.6807 1.33301 14.6673 4.31967 14.6673 7.99967C14.6673 11.6797 11.6807 14.6663 8.00065 14.6663C4.32065 14.6663 1.33398 11.6797 1.33398 7.99967ZM8.66732 8.66634H10.6673C11.034 8.66634 11.334 8.36634 11.334 7.99967C11.334 7.63301 11.034 7.33301 10.6673 7.33301H8.66732V5.33301C8.66732 4.96634 8.36732 4.66634 8.00065 4.66634C7.63398 4.66634 7.33398 4.96634 7.33398 5.33301V7.33301H5.33398C4.96732 7.33301 4.66732 7.63301 4.66732 7.99967C4.66732 8.36634 4.96732 8.66634 5.33398 8.66634H7.33398V10.6663C7.33398 11.033 7.63398 11.333 8.00065 11.333C8.36732 11.333 8.66732 11.033 8.66732 10.6663V8.66634Z" fill="black"/>
</mask>
<g mask="url(#mask0)">
<rect width="16" height="16" fill="white"/>
</g>
</svg>
