<svg width="16" height="16" viewBox="0 0 16 16" fill="none" xmlns="http://www.w3.org/2000/svg">
<mask id="mask0" mask-type="alpha" maskUnits="userSpaceOnUse" x="1" y="0" width="14" height="16">
<path fill-rule="evenodd" clip-rule="evenodd" d="M12.6654 2H13.332C14.0654 2 14.6654 2.6 14.6654 3.33333V14C14.6654 14.7333 14.0654 15.3333 13.332 15.3333H2.66536C1.93203 15.3333 1.33203 14.7333 1.33203 14V3.33333C1.33203 2.6 1.93203 2 2.66536 2H3.33203V1.33333C3.33203 0.966664 3.63203 0.666664 3.9987 0.666664C4.36536 0.666664 4.66536 0.966664 4.66536 1.33333V2H11.332V1.33333C11.332 0.966664 11.632 0.666664 11.9987 0.666664C12.3654 0.666664 12.6654 0.966664 12.6654 1.33333V2ZM3.33203 14H12.6654C13.032 14 13.332 13.7 13.332 13.3333V5.33333H2.66536V13.3333C2.66536 13.7 2.96536 14 3.33203 14Z" fill="black"/>
</mask>
<g mask="url(#mask0)">
<rect width="16" height="16" fill="#9098A1"/>
</g>
</svg>
