<svg width="36" height="36" viewBox="0 0 36 36" fill="none" xmlns="http://www.w3.org/2000/svg">
<mask id="mask0" mask-type="alpha" maskUnits="userSpaceOnUse" x="12" y="10" width="12" height="16">
<path fill-rule="evenodd" clip-rule="evenodd" d="M20.916 11.3333H22.9994C23.4577 11.3333 23.8327 11.7083 23.8327 12.1667C23.8327 12.625 23.4577 13 22.9994 13H12.9993C12.541 13 12.166 12.625 12.166 12.1667C12.166 11.7083 12.541 11.3333 12.9993 11.3333H15.0827L15.6743 10.7417C15.8243 10.5917 16.041 10.5 16.2577 10.5H19.741C19.9577 10.5 20.1743 10.5917 20.3244 10.7417L20.916 11.3333ZM14.666 25.5C13.7493 25.5 12.9993 24.75 12.9993 23.8333V15.5C12.9993 14.5833 13.7493 13.8333 14.666 13.8333H21.3327C22.2494 13.8333 22.9994 14.5833 22.9994 15.5V23.8333C22.9994 24.75 22.2494 25.5 21.3327 25.5H14.666Z" fill="black"/>
</mask>
<g mask="url(#mask0)">
<rect x="8" y="8" width="20" height="20" fill="#858C94"/>
</g>
</svg>
