<svg width="16" height="16" viewBox="0 0 16 16" fill="none" xmlns="http://www.w3.org/2000/svg">
<mask id="mask0" mask-type="alpha" maskUnits="userSpaceOnUse" x="3" y="2" width="10" height="12">
<path fill-rule="evenodd" clip-rule="evenodd" d="M9.99869 6.33334H11.0587C11.652 6.33334 11.9454 7.05334 11.5254 7.47334L8.46536 10.5333C8.20536 10.7933 7.78536 10.7933 7.52536 10.5333L4.46536 7.47334C4.04536 7.05334 4.34536 6.33334 4.93869 6.33334H5.99869V3C5.99869 2.63334 6.29869 2.33334 6.66536 2.33334H9.33203C9.69869 2.33334 9.99869 2.63334 9.99869 3V6.33334ZM3.9987 13.6667C3.63203 13.6667 3.33203 13.3667 3.33203 13C3.33203 12.6333 3.63203 12.3333 3.9987 12.3333H11.9987C12.3654 12.3333 12.6654 12.6333 12.6654 13C12.6654 13.3667 12.3654 13.6667 11.9987 13.6667H3.9987Z" fill="black"/>
</mask>
<g mask="url(#mask0)">
<rect width="16" height="16" fill="#9098A1"/>
</g>
</svg>
