<svg width="32" height="32" viewBox="0 0 32 32" fill="none" xmlns="http://www.w3.org/2000/svg">
<path fill-rule="evenodd" clip-rule="evenodd" d="M28.781 4.40476H18.651V2.01776L2 4.58776V27.1148L18.651 29.9828V26.4448H28.781C29.0878 26.4603 29.3883 26.3537 29.6167 26.1483C29.8451 25.943 29.9829 25.6555 30 25.3488V5.49976C29.9827 5.19322 29.8448 4.90599 29.6164 4.70082C29.388 4.49565 29.0876 4.38921 28.781 4.40476ZM28.941 25.5308H18.617L18.6 23.6418H21.087V21.4418H18.581L18.569 20.1418H21.087V17.9418H18.55L18.538 16.6418H21.087V14.4418H18.53V13.1418H21.087V10.9418H18.53V9.64176H21.087V7.44176H18.53V5.44176H28.941V25.5308Z" fill="#20744A"/>
<path d="M22.4854 7.43921H26.8084V9.63921H22.4854V7.43921Z" fill="#20744A"/>
<path d="M22.4854 10.9397H26.8084V13.1397H22.4854V10.9397Z" fill="#20744A"/>
<path d="M22.4854 14.4412H26.8084V16.6412H22.4854V14.4412Z" fill="#20744A"/>
<path d="M22.4854 17.9417H26.8084V20.1417H22.4854V17.9417Z" fill="#20744A"/>
<path d="M22.4854 21.4432H26.8084V23.6432H22.4854V21.4432Z" fill="#20744A"/>
<path fill-rule="evenodd" clip-rule="evenodd" d="M6.34709 10.6727L8.49309 10.5497L9.84209 14.2587L11.4361 10.3967L13.5821 10.2737L10.9761 15.5397L13.5821 20.8187L11.3131 20.6657L9.78109 16.6417L8.24809 20.5127L6.16309 20.3287L8.58509 15.6657L6.34709 10.6727Z" fill="white"/>
</svg>
