<svg width="49" height="54" viewBox="0 0 49 54" fill="none" xmlns="http://www.w3.org/2000/svg">
<path d="M48.125 34.3748H0.874998C0.643018 34.3746 0.420617 34.2822 0.256582 34.1179C0.0925472 33.9537 0.000272791 33.731 0 33.4987V21.7628C0.000272329 21.5306 0.0925471 21.3079 0.256582 21.1436C0.420617 20.9794 0.643018 20.887 0.874998 20.8867H48.125C48.357 20.887 48.5794 20.9794 48.7434 21.1436C48.9074 21.3079 48.9997 21.5306 49 21.7628V33.4987C48.9997 33.731 48.9074 33.9537 48.7434 34.1179C48.5794 34.2822 48.357 34.3746 48.125 34.3748ZM0.874998 21.2372C0.735807 21.2373 0.602359 21.2928 0.503936 21.3913C0.405512 21.4899 0.350151 21.6235 0.349999 21.7628V33.4987C0.350151 33.6381 0.405512 33.7717 0.503936 33.8702C0.602359 33.9688 0.735807 34.0242 0.874998 34.0244H48.125C48.2642 34.0242 48.3976 33.9688 48.4961 33.8702C48.5945 33.7717 48.6498 33.6381 48.65 33.4987V21.7628C48.6498 21.6235 48.5945 21.4899 48.4961 21.3913C48.3976 21.2928 48.2642 21.2373 48.125 21.2372H0.874998Z" fill="#9C9C9C"/>
<path d="M7.00019 31.3104C9.02983 31.3104 10.6752 29.6629 10.6752 27.6307C10.6752 25.5984 9.02983 23.9509 7.00019 23.9509C4.97055 23.9509 3.3252 25.5984 3.3252 27.6307C3.3252 29.6629 4.97055 31.3104 7.00019 31.3104Z" fill="#9C9C9C"/>
<path d="M15.4875 25.1775C15.3251 25.1775 15.1693 25.2421 15.0544 25.3571C14.9395 25.4721 14.875 25.6281 14.875 25.7908C14.875 25.9534 14.9395 26.1094 15.0544 26.2244C15.1693 26.3395 15.3251 26.4041 15.4875 26.4041H44.3624C44.5249 26.4041 44.6807 26.3395 44.7956 26.2244C44.9104 26.1094 44.9749 25.9534 44.9749 25.7908C44.9749 25.6281 44.9104 25.4721 44.7956 25.3571C44.6807 25.2421 44.5249 25.1775 44.3624 25.1775H15.4875Z" fill="#9C9C9C"/>
<path d="M15.4875 28.8572C15.3251 28.8572 15.1693 28.9218 15.0544 29.0368C14.9395 29.1518 14.875 29.3078 14.875 29.4705C14.875 29.6331 14.9395 29.7891 15.0544 29.9041C15.1693 30.0191 15.3251 30.0838 15.4875 30.0838H44.3624C44.5249 30.0838 44.6807 30.0191 44.7956 29.9041C44.9104 29.7891 44.9749 29.6331 44.9749 29.4705C44.9749 29.3078 44.9104 29.1518 44.7956 29.0368C44.6807 28.9218 44.5249 28.8572 44.3624 28.8572H15.4875Z" fill="#9C9C9C"/>
<path d="M48.125 54.0001H0.874998C0.643018 53.9998 0.420617 53.9074 0.256582 53.7432C0.0925472 53.5789 0.000272791 53.3562 0 53.1239V41.3881C0.000272329 41.1558 0.0925471 40.9331 0.256582 40.7689C0.420617 40.6046 0.643018 40.5122 0.874998 40.512H48.125C48.357 40.5122 48.5794 40.6046 48.7434 40.7689C48.9074 40.9331 48.9997 41.1558 49 41.3881V53.1239C48.9997 53.3562 48.9074 53.5789 48.7434 53.7432C48.5794 53.9074 48.357 53.9998 48.125 54.0001ZM0.874998 40.8624C0.735807 40.8626 0.602359 40.918 0.503936 41.0165C0.405512 41.1151 0.350151 41.2487 0.349999 41.3881V53.1239C0.350151 53.2633 0.405512 53.3969 0.503936 53.4955C0.602359 53.594 0.735807 53.6495 0.874998 53.6496H48.125C48.2642 53.6495 48.3976 53.594 48.4961 53.4955C48.5945 53.3969 48.6498 53.2633 48.65 53.1239V41.3881C48.6498 41.2487 48.5945 41.1151 48.4961 41.0165C48.3976 40.918 48.2642 40.8626 48.125 40.8624H0.874998Z" fill="#9C9C9C"/>
<path d="M7.00019 50.9357C9.02983 50.9357 10.6752 49.2882 10.6752 47.2559C10.6752 45.2237 9.02983 43.5762 7.00019 43.5762C4.97055 43.5762 3.3252 45.2237 3.3252 47.2559C3.3252 49.2882 4.97055 50.9357 7.00019 50.9357Z" fill="#9C9C9C"/>
<path d="M15.4875 44.8027C15.3251 44.8027 15.1693 44.8673 15.0544 44.9824C14.9395 45.0974 14.875 45.2534 14.875 45.416C14.875 45.5787 14.9395 45.7347 15.0544 45.8497C15.1693 45.9647 15.3251 46.0293 15.4875 46.0293H44.3624C44.5249 46.0293 44.6807 45.9647 44.7956 45.8497C44.9104 45.7347 44.9749 45.5787 44.9749 45.416C44.9749 45.2534 44.9104 45.0974 44.7956 44.9824C44.6807 44.8673 44.5249 44.8027 44.3624 44.8027H15.4875Z" fill="#9C9C9C"/>
<path d="M15.4875 48.4824C15.3251 48.4824 15.1693 48.547 15.0544 48.662C14.9395 48.7771 14.875 48.9331 14.875 49.0957C14.875 49.2584 14.9395 49.4144 15.0544 49.5294C15.1693 49.6444 15.3251 49.709 15.4875 49.709H44.3624C44.5249 49.709 44.6807 49.6444 44.7956 49.5294C44.9104 49.4144 44.9749 49.2584 44.9749 49.0957C44.9749 48.9331 44.9104 48.7771 44.7956 48.662C44.6807 48.547 44.5249 48.4824 44.3624 48.4824H15.4875Z" fill="#9C9C9C"/>
<path d="M24.4994 14.719C23.0457 14.719 21.6247 14.2873 20.416 13.4787C19.2073 12.67 18.2652 11.5206 17.7089 10.1758C17.1526 8.83107 17.007 7.35132 17.2906 5.92372C17.5742 4.49612 18.2743 3.18479 19.3022 2.15555C20.3301 1.1263 21.6397 0.425381 23.0655 0.141414C24.4912 -0.142554 25.9691 0.00318922 27.3121 0.560211C28.6552 1.11723 29.8031 2.06051 30.6107 3.27078C31.4183 4.48104 31.8494 5.90392 31.8494 7.35949C31.8472 9.31067 31.0721 11.1813 29.6942 12.561C28.3163 13.9407 26.4481 14.7168 24.4994 14.719ZM24.4994 0.350454C23.1149 0.350454 21.7616 0.761526 20.6104 1.53169C19.4593 2.30185 18.5621 3.39651 18.0323 4.67725C17.5024 5.95798 17.3638 7.36726 17.6339 8.72688C17.904 10.0865 18.5707 11.3354 19.5497 12.3156C20.5286 13.2959 21.7759 13.9634 23.1338 14.2338C24.4916 14.5043 25.8991 14.3655 27.1782 13.835C28.4573 13.3045 29.5505 12.4061 30.3197 11.2535C31.0888 10.1009 31.4994 8.74574 31.4994 7.35949C31.4973 5.50122 30.7591 3.71968 29.4468 2.40568C28.1345 1.09169 26.3553 0.352565 24.4994 0.350454Z" fill="#9C9C9C"/>
<path d="M27.4003 6.63361H25.2252V4.45571C25.2252 4.26317 25.1488 4.07852 25.0129 3.94237C24.8769 3.80622 24.6925 3.72974 24.5002 3.72974C24.3079 3.72974 24.1235 3.80622 23.9875 3.94237C23.8515 4.07852 23.7751 4.26317 23.7751 4.45571V6.63361H21.6C21.4077 6.63361 21.2233 6.7101 21.0874 6.84625C20.9514 6.98239 20.875 7.16704 20.875 7.35958C20.875 7.55212 20.9514 7.73677 21.0874 7.87292C21.2233 8.00906 21.4077 8.08555 21.6 8.08555H23.7751V10.2635C23.7751 10.456 23.8515 10.6406 23.9875 10.7768C24.1235 10.9129 24.3079 10.9894 24.5002 10.9894C24.6925 10.9894 24.8769 10.9129 25.0128 10.7768C25.1488 10.6406 25.2252 10.456 25.2252 10.2635V8.08555H27.4003C27.5926 8.08555 27.777 8.00907 27.913 7.87292C28.0489 7.73678 28.1253 7.55212 28.1253 7.35959C28.1253 7.16705 28.0489 6.9824 27.913 6.84625C27.777 6.71011 27.5926 6.63362 27.4003 6.63362V6.63361Z" fill="#9C9C9C"/>
</svg>
