<svg width="110" height="121" viewBox="0 0 110 121" fill="none" xmlns="http://www.w3.org/2000/svg">
<path d="M108.036 77.0248H1.96428C1.44351 77.0242 0.944242 76.8172 0.576001 76.4491C0.207759 76.0811 0.000612388 75.5821 0 75.0616V48.7646C0.00061135 48.2442 0.207759 47.7452 0.576001 47.3771C0.944243 47.0091 1.44351 46.8021 1.96428 46.8015H108.036C108.556 46.8021 109.056 47.0091 109.424 47.3771C109.792 47.7452 109.999 48.2442 110 48.7646V75.0616C109.999 75.5821 109.792 76.0811 109.424 76.4491C109.056 76.8172 108.556 77.0242 108.036 77.0248ZM1.96428 47.5867C1.65181 47.5871 1.35224 47.7113 1.13128 47.9321C0.910334 48.1529 0.786054 48.4523 0.785713 48.7646V75.0616C0.786054 75.3739 0.910334 75.6733 1.13128 75.8942C1.35224 76.115 1.65181 76.2392 1.96428 76.2395H108.036C108.348 76.2392 108.648 76.115 108.869 75.8942C109.09 75.6733 109.214 75.3739 109.214 75.0616V48.7646C109.214 48.4523 109.09 48.1529 108.869 47.9321C108.648 47.7113 108.348 47.5871 108.036 47.5867H1.96428Z" fill="#9C9C9C"/>
<path d="M15.7129 70.1584C20.2692 70.1584 23.9629 66.4668 23.9629 61.913C23.9629 57.3592 20.2692 53.6677 15.7129 53.6677C11.1565 53.6677 7.46289 57.3592 7.46289 61.913C7.46289 66.4668 11.1565 70.1584 15.7129 70.1584Z" fill="#9C9C9C"/>
<path d="M34.7676 56.4161C34.4029 56.4161 34.0532 56.5609 33.7953 56.8186C33.5375 57.0763 33.3926 57.4258 33.3926 57.7903C33.3926 58.1548 33.5375 58.5043 33.7953 58.762C34.0532 59.0197 34.4029 59.1645 34.7676 59.1645H99.5889C99.9536 59.1645 100.303 59.0197 100.561 58.762C100.819 58.5043 100.964 58.1548 100.964 57.7903C100.964 57.4258 100.819 57.0763 100.561 56.8186C100.303 56.5609 99.9536 56.4161 99.5889 56.4161H34.7676Z" fill="#9C9C9C"/>
<path d="M34.7676 64.6614C34.4029 64.6614 34.0532 64.8062 33.7953 65.0639C33.5375 65.3217 33.3926 65.6712 33.3926 66.0357C33.3926 66.4001 33.5375 66.7497 33.7953 67.0074C34.0532 67.2651 34.4029 67.4099 34.7676 67.4099H99.5889C99.9536 67.4099 100.303 67.2651 100.561 67.0074C100.819 66.7497 100.964 66.4001 100.964 66.0357C100.964 65.6712 100.819 65.3217 100.561 65.0639C100.303 64.8062 99.9536 64.6614 99.5889 64.6614H34.7676Z" fill="#9C9C9C"/>
<path d="M108.036 121H1.96428C1.44351 120.999 0.944242 120.792 0.576001 120.424C0.207759 120.056 0.000612388 119.557 0 119.037V92.7398C0.00061135 92.2193 0.207759 91.7203 0.576001 91.3523C0.944243 90.9843 1.44351 90.7772 1.96428 90.7766H108.036C108.556 90.7772 109.056 90.9843 109.424 91.3523C109.792 91.7203 109.999 92.2193 110 92.7398V119.037C109.999 119.557 109.792 120.056 109.424 120.424C109.056 120.792 108.556 120.999 108.036 121ZM1.96428 91.5619C1.65181 91.5622 1.35224 91.6864 1.13128 91.9073C0.910334 92.1281 0.786054 92.4275 0.785713 92.7398V119.037C0.786054 119.349 0.910334 119.648 1.13128 119.869C1.35224 120.09 1.65181 120.214 1.96428 120.215H108.036C108.348 120.214 108.648 120.09 108.869 119.869C109.09 119.648 109.214 119.349 109.214 119.037V92.7398C109.214 92.4275 109.09 92.1281 108.869 91.9073C108.648 91.6864 108.348 91.5622 108.036 91.5619H1.96428Z" fill="#9C9C9C"/>
<path d="M15.7129 114.134C20.2692 114.134 23.9629 110.442 23.9629 105.888C23.9629 101.334 20.2692 97.6429 15.7129 97.6429C11.1565 97.6429 7.46289 101.334 7.46289 105.888C7.46289 110.442 11.1565 114.134 15.7129 114.134Z" fill="#9C9C9C"/>
<path d="M34.7676 100.391C34.4029 100.391 34.0532 100.536 33.7953 100.794C33.5375 101.052 33.3926 101.401 33.3926 101.766C33.3926 102.13 33.5375 102.48 33.7953 102.737C34.0532 102.995 34.4029 103.14 34.7676 103.14H99.5889C99.9536 103.14 100.303 102.995 100.561 102.737C100.819 102.48 100.964 102.13 100.964 101.766C100.964 101.401 100.819 101.052 100.561 100.794C100.303 100.536 99.9536 100.391 99.5889 100.391H34.7676Z" fill="#9C9C9C"/>
<path d="M34.7676 108.637C34.4029 108.637 34.0532 108.781 33.7953 109.039C33.5375 109.297 33.3926 109.646 33.3926 110.011C33.3926 110.375 33.5375 110.725 33.7953 110.983C34.0532 111.24 34.4029 111.385 34.7676 111.385H99.5889C99.9536 111.385 100.303 111.24 100.561 110.983C100.819 110.725 100.964 110.375 100.964 110.011C100.964 109.646 100.819 109.297 100.561 109.039C100.303 108.781 99.9536 108.637 99.5889 108.637H34.7676Z" fill="#9C9C9C"/>
<path d="M55 32.9814C51.7366 32.9814 48.5465 32.0142 45.8331 30.2022C43.1197 28.3902 41.0048 25.8147 39.756 22.8014C38.5071 19.7881 38.1804 16.4724 38.8171 13.2735C39.4537 10.0746 41.0252 7.13628 43.3327 4.83002C45.6403 2.52375 48.5803 0.953168 51.781 0.316871C54.9817 -0.319426 58.2993 0.00714622 61.3142 1.25529C64.3292 2.50343 66.9061 4.61708 68.7192 7.32896C70.5322 10.0408 71.4999 13.2291 71.4999 16.4907C71.495 20.8628 69.755 25.0544 66.6618 28.1459C63.5685 31.2375 59.3745 32.9765 55 32.9814ZM55 0.785277C51.892 0.785277 48.8538 1.70638 46.2696 3.43212C43.6854 5.15785 41.6713 7.6107 40.4819 10.4805C39.2925 13.3503 38.9813 16.5081 39.5877 19.5547C40.194 22.6012 41.6906 25.3997 43.8883 27.5961C46.086 29.7926 48.886 31.2884 51.9343 31.8943C54.9825 32.5003 58.1422 32.1893 61.0136 31.0006C63.885 29.8119 66.3392 27.7989 68.0659 25.2162C69.7926 22.6334 70.7142 19.5969 70.7142 16.4907C70.7095 12.3268 69.0524 8.33483 66.1064 5.39051C63.1604 2.4462 59.1662 0.790007 55 0.785277Z" fill="#9C9C9C"/>
<path d="M61.5099 14.864H56.6271V9.98384C56.6271 9.55241 56.4556 9.13864 56.1504 8.83357C55.8452 8.5285 55.4312 8.35712 54.9995 8.35712C54.5678 8.35712 54.1538 8.5285 53.8486 8.83357C53.5433 9.13864 53.3718 9.55241 53.3718 9.98384V14.864H48.489C48.0573 14.864 47.6433 15.0353 47.3381 15.3404C47.0328 15.6455 46.8613 16.0592 46.8613 16.4907C46.8613 16.9221 47.0328 17.3358 47.3381 17.6409C47.6433 17.946 48.0573 18.1174 48.489 18.1174H53.3718V22.9975C53.3718 23.4289 53.5433 23.8427 53.8486 24.1477C54.1538 24.4528 54.5678 24.6242 54.9995 24.6242C55.4311 24.6242 55.8451 24.4528 56.1504 24.1477C56.4556 23.8427 56.6271 23.4289 56.6271 22.9975V18.1174H61.5099C61.9416 18.1174 62.3556 17.946 62.6608 17.6409C62.9661 17.3359 63.1375 16.9221 63.1375 16.4907C63.1375 16.0592 62.9661 15.6455 62.6608 15.3404C62.3556 15.0354 61.9416 14.864 61.5099 14.864V14.864Z" fill="#9C9C9C"/>
</svg>
