<svg width="32" height="32" viewBox="0 0 32 32" fill="none" xmlns="http://www.w3.org/2000/svg">
<path d="M24.1019 2.07214L29.6659 7.87214V29.9281H8.88086V30.0001H29.7369V7.94514L24.1019 2.07214Z" fill="#909090"/>
<path d="M24.0296 2H8.80664V29.928H29.6626V7.873L24.0286 2" fill="#F4F4F4"/>
<path d="M8.65562 3.5H2.26562V10.327H22.3656V3.5H8.65562Z" fill="#7A7B7C"/>
<path d="M22.4735 10.211H2.39648V3.37897H22.4735V10.211Z" fill="#DD2025"/>
<path d="M9.05016 4.53363H7.74316V9.33363H8.77116V7.71463L8.99816 7.72763C9.21873 7.72383 9.43723 7.68432 9.64516 7.61063C9.82747 7.54793 9.99518 7.44894 10.1382 7.31963C10.2837 7.19645 10.3984 7.04099 10.4732 6.86563C10.5735 6.57413 10.6093 6.26433 10.5782 5.95763C10.5719 5.73854 10.5335 5.52155 10.4642 5.31363C10.401 5.16354 10.3074 5.02823 10.1891 4.91632C10.0708 4.80442 9.93052 4.71836 9.77716 4.66363C9.64457 4.61563 9.50758 4.58079 9.36816 4.55963C9.26259 4.54334 9.15598 4.53465 9.04916 4.53363H9.05016ZM8.86016 6.82763H8.77116V5.34763H8.96416C9.04934 5.34149 9.13482 5.35456 9.21426 5.38589C9.29371 5.41722 9.3651 5.466 9.42316 5.52863C9.54348 5.68964 9.60776 5.88563 9.60616 6.08663C9.60616 6.33263 9.60616 6.55563 9.38416 6.71263C9.22423 6.80059 9.04219 6.8402 8.86016 6.82663" fill="#464648"/>
<path d="M12.5327 4.52131C12.4217 4.52131 12.3137 4.52931 12.2377 4.53231L11.9997 4.53831H11.2197V9.33831H12.1377C12.4886 9.34792 12.8378 9.28846 13.1657 9.16331C13.4296 9.05863 13.6633 8.88989 13.8457 8.67231C14.0231 8.45276 14.1504 8.19714 14.2187 7.92331C14.2973 7.61318 14.3356 7.29422 14.3327 6.97431C14.3521 6.59646 14.3229 6.2177 14.2457 5.84731C14.1725 5.57467 14.0354 5.3234 13.8457 5.11431C13.6969 4.94547 13.5148 4.80928 13.3107 4.71431C13.1355 4.63322 12.9512 4.57346 12.7617 4.53631C12.6864 4.52386 12.6101 4.51817 12.5337 4.51931L12.5327 4.52131ZM12.3517 8.45631H12.2517V5.39231H12.2647C12.4709 5.36859 12.6795 5.40579 12.8647 5.49931C13.0004 5.60763 13.1109 5.74411 13.1887 5.89931C13.2727 6.06264 13.3211 6.24191 13.3307 6.42531C13.3397 6.64531 13.3307 6.82531 13.3307 6.97431C13.3348 7.14594 13.3238 7.31761 13.2977 7.48731C13.2669 7.66154 13.2099 7.83011 13.1287 7.98731C13.0368 8.13346 12.9126 8.25661 12.7657 8.34731C12.6423 8.42711 12.4962 8.46433 12.3497 8.45331" fill="#464648"/>
<path d="M17.43 4.53754H15V9.33754H16.028V7.43354H17.328V6.54154H16.028V5.42954H17.428V4.53754" fill="#464648"/>
<path d="M21.7826 20.2553C21.7826 20.2553 24.9706 19.6773 24.9706 20.7663C24.9706 21.8553 22.9956 21.4123 21.7826 20.2553ZM19.4256 20.3383C18.9191 20.4502 18.4255 20.614 17.9526 20.8273L18.3526 19.9273C18.7526 19.0273 19.1676 17.8003 19.1676 17.8003C19.645 18.6036 20.2003 19.3579 20.8256 20.0523C20.3541 20.1226 19.8867 20.2187 19.4256 20.3403V20.3383ZM18.1636 13.8383C18.1636 12.8893 18.4706 12.6303 18.7096 12.6303C18.9486 12.6303 19.2176 12.7453 19.2266 13.5693C19.1488 14.3978 18.9753 15.2146 18.7096 16.0033C18.3458 15.3411 18.1575 14.5968 18.1626 13.8413L18.1636 13.8383ZM13.5146 24.3543C12.5366 23.7693 15.5656 21.9683 16.1146 21.9103C16.1116 21.9113 14.5386 24.9663 13.5146 24.3543ZM25.9016 20.8953C25.8916 20.7953 25.8016 19.6883 23.8316 19.7353C23.0105 19.722 22.1898 19.7799 21.3786 19.9083C20.5929 19.1167 19.9163 18.2238 19.3666 17.2533C19.7129 16.2527 19.9225 15.2099 19.9896 14.1533C19.9606 12.9533 19.6736 12.2653 18.7536 12.2753C17.8336 12.2853 17.6996 13.0903 17.8206 14.2883C17.9392 15.0933 18.1627 15.8793 18.4856 16.6263C18.4856 16.6263 18.0606 17.9493 17.4986 19.2653C16.9366 20.5813 16.5526 21.2713 16.5526 21.2713C15.5754 21.5894 14.6554 22.0621 13.8276 22.6713C13.0036 23.4383 12.6686 24.0273 13.1026 24.6163C13.4766 25.1243 14.7856 25.2393 15.9556 23.7063C16.5773 22.9145 17.1452 22.0819 17.6556 21.2143C17.6556 21.2143 19.4396 20.7253 19.9946 20.5913C20.5496 20.4573 21.2206 20.3513 21.2206 20.3513C21.2206 20.3513 22.8496 21.9903 24.4206 21.9323C25.9916 21.8743 25.9156 20.9933 25.9056 20.8973" fill="#DD2025"/>
<path d="M23.9531 2.0766V7.9496H29.5861L23.9531 2.0766Z" fill="#909090"/>
<path d="M24.0312 2V7.873H29.6642L24.0312 2Z" fill="#F4F4F4"/>
<path d="M8.97692 4.45703H7.66992V9.25703H8.70192V7.63903L8.92992 7.65203C9.15049 7.64824 9.36899 7.60872 9.57692 7.53503C9.75921 7.4723 9.92692 7.37331 10.0699 7.24403C10.2143 7.12052 10.328 6.96508 10.4019 6.79003C10.5022 6.49853 10.538 6.18873 10.5069 5.88203C10.5007 5.66294 10.4623 5.44595 10.3929 5.23803C10.3298 5.08794 10.2361 4.95263 10.1178 4.84072C9.99956 4.72882 9.85928 4.64276 9.70592 4.58803C9.57272 4.53956 9.43505 4.50439 9.29492 4.48303C9.18935 4.46674 9.08274 4.45805 8.97592 4.45703H8.97692ZM8.78692 6.75103H8.69792V5.27103H8.89192C8.9771 5.26489 9.06257 5.27797 9.14202 5.30929C9.22147 5.34062 9.29286 5.3894 9.35092 5.45203C9.47124 5.61305 9.53552 5.80903 9.53392 6.01003C9.53392 6.25603 9.53392 6.47903 9.31192 6.63603C9.15199 6.724 8.96994 6.7636 8.78792 6.75003" fill="white"/>
<path d="M12.4575 4.44379C12.3465 4.44379 12.2385 4.45179 12.1625 4.45479L11.9275 4.46079H11.1475V9.26079H12.0655C12.4163 9.27041 12.7656 9.21095 13.0935 9.08579C13.3574 8.98111 13.5911 8.81237 13.7735 8.59479C13.9508 8.37525 14.0781 8.11963 14.1465 7.84579C14.225 7.53566 14.2633 7.21671 14.2605 6.89679C14.2799 6.51895 14.2506 6.14018 14.1735 5.76979C14.1002 5.49715 13.9631 5.24588 13.7735 5.03679C13.6247 4.86795 13.4425 4.73176 13.2385 4.63679C13.0632 4.55571 12.8789 4.49595 12.6895 4.45879C12.6141 4.44635 12.5378 4.44066 12.4615 4.44179L12.4575 4.44379ZM12.2795 8.37879H12.1795V5.31479H12.1925C12.3986 5.29107 12.6072 5.32827 12.7925 5.42179C12.9281 5.53012 13.0387 5.66659 13.1165 5.82179C13.2004 5.98513 13.2488 6.1644 13.2585 6.34779C13.2675 6.56779 13.2585 6.74779 13.2585 6.89679C13.2625 7.06843 13.2515 7.24009 13.2255 7.40979C13.1946 7.58402 13.1377 7.75259 13.0565 7.90979C12.9646 8.05595 12.8404 8.1791 12.6935 8.26979C12.5701 8.34959 12.424 8.38682 12.2775 8.37579" fill="white"/>
<path d="M17.3529 4.461H14.9229V9.261H15.9509V7.357H17.2509V6.465H15.9509V5.353H17.3509V4.461" fill="white"/>
</svg>
